<svg width="800" height="256" viewBox="0 0 800 256" fill="none" xmlns="http://www.w3.org/2000/svg" shape-rendering="geometricPrecision">
  <defs>
    <linearGradient id="logo-large-bg" x1="0%" y1="0%" x2="100%" y2="100%">
      <stop offset="0%" style="stop-color:#7c3aed;stop-opacity:1" />
      <stop offset="50%" style="stop-color:#ec4899;stop-opacity:1" />
      <stop offset="100%" style="stop-color:#06b6d4;stop-opacity:1" />
    </linearGradient>
    <linearGradient id="logo-large-text" x1="0%" y1="0%" x2="100%" y2="0%">
      <stop offset="0%" style="stop-color:#a855f7;stop-opacity:1" />
      <stop offset="50%" style="stop-color:#ec4899;stop-opacity:1" />
      <stop offset="100%" style="stop-color:#06b6d4;stop-opacity:1" />
    </linearGradient>
  </defs>
  
  <!-- Icon -->
  <rect width="256" height="256" rx="60" fill="url(#logo-large-bg)" />
  <g transform="translate(0, 0)">
    <path d="M 40 100 Q 60 88 80 100 T 120 100 T 160 100 T 200 100" stroke="white" stroke-width="12" stroke-linecap="round" fill="none" opacity="0.95" />
    <circle cx="200" cy="100" r="8" fill="white" opacity="0.95" />
    <path d="M 40 128 Q 60 116 80 128 T 120 128 T 160 128 T 200 128" stroke="white" stroke-width="12" stroke-linecap="round" fill="none" opacity="0.9" />
    <circle cx="200" cy="128" r="8" fill="white" opacity="0.9" />
    <path d="M 40 156 Q 60 144 80 156 T 120 156 T 160 156 T 200 156" stroke="white" stroke-width="12" stroke-linecap="round" fill="none" opacity="0.85" />
    <circle cx="200" cy="156" r="8" fill="white" opacity="0.85" />
  </g>
  
  <!-- Text: STRATYIX -->
  <text x="300" y="155" font-family="Arial, sans-serif" font-size="90" font-weight="bold" fill="url(#logo-large-text)" letter-spacing="2">STRATYIX</text>
</svg>