<svg width="500" height="160" viewBox="0 0 500 160" fill="none" xmlns="http://www.w3.org/2000/svg" shape-rendering="geometricPrecision">
  <defs>
    <linearGradient id="logo-medium-bg" x1="0%" y1="0%" x2="100%" y2="100%">
      <stop offset="0%" style="stop-color:#7c3aed;stop-opacity:1" />
      <stop offset="50%" style="stop-color:#ec4899;stop-opacity:1" />
      <stop offset="100%" style="stop-color:#06b6d4;stop-opacity:1" />
    </linearGradient>
    <linearGradient id="logo-medium-text" x1="0%" y1="0%" x2="100%" y2="0%">
      <stop offset="0%" style="stop-color:#a855f7;stop-opacity:1" />
      <stop offset="50%" style="stop-color:#ec4899;stop-opacity:1" />
      <stop offset="100%" style="stop-color:#06b6d4;stop-opacity:1" />
    </linearGradient>
  </defs>
  
  <!-- Icon -->
  <rect width="160" height="160" rx="40" fill="url(#logo-medium-bg)" />
  <g transform="translate(0, 0)">
    <path d="M 25 62 Q 37 55 50 62 T 75 62 T 100 62 T 125 62" stroke="white" stroke-width="8" stroke-linecap="round" fill="none" opacity="0.95" />
    <circle cx="125" cy="62" r="5" fill="white" opacity="0.95" />
    <path d="M 25 80 Q 37 73 50 80 T 75 80 T 100 80 T 125 80" stroke="white" stroke-width="8" stroke-linecap="round" fill="none" opacity="0.9" />
    <circle cx="125" cy="80" r="5" fill="white" opacity="0.9" />
    <path d="M 25 98 Q 37 91 50 98 T 75 98 T 100 98 T 125 98" stroke="white" stroke-width="8" stroke-linecap="round" fill="none" opacity="0.85" />
    <circle cx="125" cy="98" r="5" fill="white" opacity="0.85" />
  </g>
  
  <!-- Text: STRATYIX -->
  <text x="185" y="98" font-family="Arial, sans-serif" font-size="56" font-weight="bold" fill="url(#logo-medium-text)" letter-spacing="1">STRATYIX</text>
</svg>