<svg width="300" height="96" viewBox="0 0 300 96" fill="none" xmlns="http://www.w3.org/2000/svg" shape-rendering="geometricPrecision">
  <defs>
    <linearGradient id="logo-small-bg" x1="0%" y1="0%" x2="100%" y2="100%">
      <stop offset="0%" style="stop-color:#7c3aed;stop-opacity:1" />
      <stop offset="50%" style="stop-color:#ec4899;stop-opacity:1" />
      <stop offset="100%" style="stop-color:#06b6d4;stop-opacity:1" />
    </linearGradient>
    <linearGradient id="logo-small-text" x1="0%" y1="0%" x2="100%" y2="0%">
      <stop offset="0%" style="stop-color:#a855f7;stop-opacity:1" />
      <stop offset="50%" style="stop-color:#ec4899;stop-opacity:1" />
      <stop offset="100%" style="stop-color:#06b6d4;stop-opacity:1" />
    </linearGradient>
  </defs>
  
  <!-- Icon -->
  <rect width="96" height="96" rx="24" fill="url(#logo-small-bg)" />
  <g transform="translate(0, 0)">
    <path d="M 15 37 Q 22 33 30 37 T 45 37 T 60 37 T 75 37" stroke="white" stroke-width="5" stroke-linecap="round" fill="none" opacity="0.95" />
    <circle cx="75" cy="37" r="3" fill="white" opacity="0.95" />
    <path d="M 15 48 Q 22 44 30 48 T 45 48 T 60 48 T 75 48" stroke="white" stroke-width="5" stroke-linecap="round" fill="none" opacity="0.9" />
    <circle cx="75" cy="48" r="3" fill="white" opacity="0.9" />
    <path d="M 15 59 Q 22 55 30 59 T 45 59 T 60 59 T 75 59" stroke="white" stroke-width="5" stroke-linecap="round" fill="none" opacity="0.85" />
    <circle cx="75" cy="59" r="3" fill="white" opacity="0.85" />
  </g>
  
  <!-- Text: STRATYIX -->
  <text x="110" y="60" font-family="Arial, sans-serif" font-size="34" font-weight="bold" fill="url(#logo-small-text)" letter-spacing="0.5">STRATYIX</text>
</svg>